<svg width="268" height="67" viewBox="0 0 268 67" fill="none" xmlns="http://www.w3.org/2000/svg">
<g clip-path="url(#clip0_203415_1036)">
<path d="M17.6494 43.2912C14.3828 43.2912 11.2314 42.8405 8.18071 41.9535C5.14442 41.0448 2.69811 39.8816 0.841797 38.464L4.09394 31.194C5.85672 32.4953 7.95767 33.5422 10.3968 34.3346C12.8287 35.1343 15.2678 35.5269 17.7069 35.5269C20.4122 35.5269 22.4125 35.1198 23.722 34.3055C25.0243 33.4913 25.679 32.4153 25.679 31.0777C25.679 30.0889 25.2905 29.2674 24.5278 28.6059C23.7579 27.9516 22.7722 27.4281 21.5634 27.0356C20.3691 26.6284 18.7502 26.185 16.6996 25.6979C13.5482 24.9636 10.9796 24.2148 8.98656 23.4587C6.98634 22.7027 5.27393 21.4959 3.83492 19.8238C2.39592 18.1589 1.67642 15.9271 1.67642 13.1354C1.67642 10.7145 2.31677 8.52623 3.60468 6.56334C4.90698 4.60772 6.86403 3.05922 9.47582 1.91056C12.102 0.747369 15.2966 0.165771 19.0596 0.165771C21.6858 0.165771 24.2544 0.48565 26.7726 1.12541C29.3053 1.75062 31.507 2.65937 33.3921 3.85891L30.4277 11.187C26.6287 8.99878 22.8154 7.90101 19.002 7.90101C16.3327 7.90101 14.354 8.33721 13.0733 9.20961C11.807 10.082 11.1738 11.2379 11.1738 12.6701C11.1738 14.1096 11.9005 15.171 13.3611 15.8689C14.8361 16.5523 17.0881 17.2284 20.1244 17.9045C23.2687 18.6606 25.8373 19.4166 27.8375 20.1727C29.8521 20.9288 31.5645 22.1211 32.9891 23.7495C34.4281 25.378 35.1476 27.5808 35.1476 30.3507C35.1476 32.7352 34.4857 34.9162 33.1618 36.8936C31.8523 38.8565 29.8881 40.4123 27.2619 41.5755C24.6285 42.7169 21.4267 43.2912 17.6494 43.2912Z" fill="#00BF63"/>
<path d="M59.7919 10.0529C62.7275 10.0529 65.4041 10.7435 67.8216 12.1175C70.2391 13.477 72.1386 15.3963 73.52 17.8753C74.9015 20.3617 75.5922 23.2478 75.5922 26.5411C75.5922 29.8417 74.9015 32.7279 73.52 35.2069C72.1386 37.6933 70.2391 39.6198 67.8216 40.9938C65.4041 42.3533 62.7275 43.0294 59.7919 43.0294C55.7412 43.0294 52.5538 41.7426 50.237 39.1618V54.1088H41.0273V10.5181H49.834V14.2113C52.0933 11.4414 55.4174 10.0529 59.7919 10.0529ZM58.1803 35.4105C60.5402 35.4105 62.4757 34.6108 63.9938 32.9969C65.5048 31.3902 66.2675 29.2383 66.2675 26.5411C66.2675 23.8512 65.5048 21.6993 63.9938 20.0854C62.4757 18.4787 60.5402 17.6718 58.1803 17.6718C55.8347 17.6718 53.9064 18.4787 52.3955 20.0854C50.8773 21.6993 50.1218 23.8512 50.1218 26.5411C50.1218 29.2383 50.8773 31.3902 52.3955 32.9969C53.9064 34.6108 55.8347 35.4105 58.1803 35.4105Z" fill="#00BF63"/>
<path d="M140.54 14.7638C141.634 13.2153 143.109 12.0448 144.972 11.2451C146.85 10.4527 149.001 10.0529 151.419 10.0529V18.6314C150.397 18.5587 149.721 18.5151 149.376 18.5151C146.742 18.5151 144.684 19.2639 143.188 20.7542C141.691 22.2301 140.943 24.4619 140.943 27.4426V42.5641H131.733V10.5181H140.54V14.7638Z" fill="#00BF63"/>
<path d="M177.594 41.023C176.688 41.7064 175.58 42.208 174.256 42.5351C172.946 42.8623 171.565 43.0295 170.111 43.0295C166.327 43.0295 163.406 42.0626 161.333 40.1215C159.276 38.1877 158.254 35.3233 158.254 31.543V18.3989H153.361V11.2452H158.254V3.42273H167.464V11.2452H175.349V18.3989H167.464V31.4266C167.464 32.7861 167.809 33.833 168.5 34.5673C169.19 35.287 170.155 35.6432 171.406 35.6432C172.86 35.6432 174.097 35.2506 175.119 34.4509L177.594 41.023Z" fill="#00BF63"/>
<path d="M193.442 43.0294C190.809 43.0294 188.24 42.7095 185.729 42.0698C183.211 41.4155 181.21 40.5867 179.714 39.598L182.765 32.9096C184.182 33.8256 185.887 34.5672 187.887 35.1488C189.902 35.7304 191.866 36.0212 193.787 36.0212C197.68 36.0212 199.63 35.047 199.63 33.0841C199.63 32.1754 199.097 31.5283 198.047 31.1358C196.989 30.7286 195.356 30.3942 193.154 30.118C190.564 29.7108 188.42 29.2601 186.736 28.7512C185.045 28.2278 183.578 27.319 182.333 26.0177C181.103 24.7018 180.491 22.8335 180.491 20.4053C180.491 18.3915 181.067 16.5958 182.218 15.0255C183.369 13.4552 185.053 12.2338 187.283 11.3615C189.506 10.4891 192.132 10.0529 195.169 10.0529C197.392 10.0529 199.615 10.3073 201.846 10.8089C204.069 11.296 205.904 11.9721 207.343 12.8445L204.292 19.4457C201.508 17.8608 198.464 17.0611 195.169 17.0611C193.19 17.0611 191.715 17.3446 190.737 17.9044C189.758 18.4715 189.269 19.1839 189.269 20.0563C189.269 21.045 189.794 21.743 190.852 22.1501C191.902 22.5427 193.593 22.9062 195.917 23.2551C198.507 23.7059 200.623 24.1784 202.277 24.68C203.925 25.1671 205.357 26.0686 206.566 27.3845C207.789 28.6858 208.408 30.5105 208.408 32.8515C208.408 34.8507 207.81 36.6246 206.623 38.1731C205.45 39.707 203.731 40.8993 201.472 41.7499C199.227 42.6005 196.55 43.0294 193.442 43.0294Z" fill="#00BF63"/>
<mask id="mask0_203415_1036" style="mask-type:luminance" maskUnits="userSpaceOnUse" x="85" y="17" width="28" height="31">
<path d="M85.1895 17.2153H112.818V47.8219H85.1895V17.2153Z" fill="white"/>
</mask>
<g mask="url(#mask0_203415_1036)">
<path fill-rule="evenodd" clip-rule="evenodd" d="M108.436 18.582L111.314 22.1661C104.292 27.3642 107.285 45.4446 99.4929 48.716C93.9887 48.1708 89.0745 45.5536 85.5273 41.6569C92.6288 33.0347 99.9677 24.8342 108.436 18.582Z" fill="#FF914D"/>
</g>
<mask id="mask1_203415_1036" style="mask-type:luminance" maskUnits="userSpaceOnUse" x="79" y="13" width="31" height="29">
<path d="M79.7139 13.493H109.134V41.4097H79.7139V13.493Z" fill="white"/>
</mask>
<g mask="url(#mask1_203415_1036)">
<path fill-rule="evenodd" clip-rule="evenodd" d="M104.292 14.5472L107.4 17.6879C97.1188 26.4918 90.6073 33.8781 85.0096 40.9081L84.9232 40.959C81.6927 37.1059 79.75 32.126 79.75 26.6808C79.75 26.2446 79.7644 25.8084 79.7932 25.3722C83.6857 17.4334 98.3131 20.0361 104.292 14.5472Z" fill="#FF914D"/>
</g>
<mask id="mask2_203415_1036" style="mask-type:luminance" maskUnits="userSpaceOnUse" x="79" y="7" width="25" height="18">
<path d="M79.7139 7.90967H103.609V24.6597H79.7139V7.90967Z" fill="white"/>
</mask>
<g mask="url(#mask2_203415_1036)">
<path fill-rule="evenodd" clip-rule="evenodd" d="M91.3406 8.46218C96.226 8.51307 102.435 11.69 103.04 13.5075C102.845 18.0658 82.095 16.7281 79.9149 24.2598H79.8789C80.5696 17.9059 83.9153 12.3589 88.7719 8.78206C89.5634 8.54942 90.434 8.45491 91.3406 8.46218Z" fill="#FF914D"/>
</g>
<mask id="mask3_203415_1036" style="mask-type:luminance" maskUnits="userSpaceOnUse" x="88" y="4" width="20" height="10">
<path d="M88.873 4.55103H107.292V13.4931H88.873V4.55103Z" fill="white"/>
</mask>
<g mask="url(#mask3_203415_1036)">
<path fill-rule="evenodd" clip-rule="evenodd" d="M101.658 4.54382C102.759 4.54382 103.838 4.63106 104.896 4.78373C108.155 8.35329 106.414 11.5521 104.666 12.5335C103.176 13.6095 99.3198 6.87748 89.6641 8.16427C93.1105 5.87423 97.2332 4.54382 101.658 4.54382Z" fill="#FF914D"/>
</g>
<mask id="mask4_203415_1036" style="mask-type:luminance" maskUnits="userSpaceOnUse" x="99" y="22" width="20" height="26">
<path d="M99.9248 22.7986H118.344V47.8218H99.9248V22.7986Z" fill="white"/>
</mask>
<g mask="url(#mask4_203415_1036)">
<path fill-rule="evenodd" clip-rule="evenodd" d="M111.646 23.3439C111.847 23.3439 112.056 23.3875 112.279 23.4602C115.128 25.7284 120.352 36.6188 117.301 42.0495V42.0568C113.322 46.1498 107.782 48.6942 101.659 48.6942C101.493 48.6942 101.321 48.6942 101.155 48.6942C107.753 43.8743 106.314 24.667 111.646 23.3439Z" fill="#FF914D"/>
</g>
<mask id="mask5_203415_1036" style="mask-type:luminance" maskUnits="userSpaceOnUse" x="112" y="19" width="11" height="23">
<path d="M112.818 19.0764H122.539V41.4097H112.818V19.0764Z" fill="white"/>
</mask>
<g mask="url(#mask5_203415_1036)">
<path fill-rule="evenodd" clip-rule="evenodd" d="M116.919 20.6685C119.315 20.7485 122.114 22.0207 123.431 24.776L123.503 24.9433C123.546 25.5176 123.575 26.0992 123.575 26.6808C123.575 32.1623 121.596 37.1713 118.337 41.039C121.359 31.4571 112.163 23.0313 113.163 22.0934C113.825 21.1265 115.279 20.6176 116.919 20.6685Z" fill="#FF914D"/>
</g>
<mask id="mask6_203415_1036" style="mask-type:luminance" maskUnits="userSpaceOnUse" x="107" y="9" width="16" height="16">
<path d="M107.292 9.77087H122.538V24.6598H107.292V9.77087Z" fill="white"/>
</mask>
<g mask="url(#mask6_203415_1036)">
<path fill-rule="evenodd" clip-rule="evenodd" d="M117.609 11.5156C120.71 14.838 122.804 19.1273 123.401 23.8818C121.07 19.9488 117.595 18.5239 111.983 21.4973L109.098 17.8332C110.983 16.1175 114.947 13.1586 117.609 11.5156Z" fill="#FF914D"/>
</g>
<mask id="mask7_203415_1036" style="mask-type:luminance" maskUnits="userSpaceOnUse" x="103" y="4" width="16" height="14">
<path d="M103.608 4.55103H118.344V17.2153H103.608V4.55103Z" fill="white"/>
</mask>
<g mask="url(#mask7_203415_1036)">
<path fill-rule="evenodd" clip-rule="evenodd" d="M105.846 4.95081C110.134 5.78685 113.983 7.89514 116.984 10.8686L116.933 10.9631C113.775 12.4171 111.07 14.8016 108.285 17.0117L104.961 13.8783C107.127 11.6683 108.796 9.26189 105.846 4.95081Z" fill="#FF914D"/>
</g>
<mask id="mask8_203415_1036" style="mask-type:luminance" maskUnits="userSpaceOnUse" x="85" y="17" width="28" height="31">
<path d="M85.1895 17.2153H112.818V47.8219H85.1895V17.2153Z" fill="white"/>
</mask>
<g mask="url(#mask8_203415_1036)">
<path fill-rule="evenodd" clip-rule="evenodd" d="M108.436 18.582L111.314 22.1661C104.292 27.3642 107.285 45.4446 99.4929 48.716C93.9887 48.1708 89.0745 45.5536 85.5273 41.6569C92.6288 33.0347 99.9677 24.8342 108.436 18.582Z" fill="#FF914D"/>
</g>
<path d="M145.34 66.26H139.498V57.2743L134.288 66.26H129.914L124.705 57.2743V66.26H118.862V52.1853H125.798L132.101 62.2469L138.404 52.1853H145.34V66.26Z" fill="#FF914D"/>
<path d="M170.261 66.26H164.332L163.037 63.9626H154.231L152.936 66.26H147.007L155.929 52.1853H161.339L170.261 66.26ZM161.052 60.4731L158.634 56.1983L156.216 60.4731H161.052Z" fill="#FF914D"/>
<path d="M182.263 66.26H176.42V55.6749H170.952V52.1853H187.731V55.6749H182.263V66.26Z" fill="#FF914D"/>
<path d="M198.809 66.5507C195.37 66.5507 192.837 65.8455 191.211 64.4278C189.772 63.1483 189.053 61.4181 189.053 59.2225C189.053 57.0343 189.772 55.3113 191.211 54.0463C192.837 52.6141 195.37 51.8944 198.809 51.8944C200.824 51.8944 202.493 52.1416 203.817 52.6214C205.141 53.0867 206.162 53.7264 206.896 54.5407C207.623 55.3404 208.112 56.2564 208.364 57.3033H202.205C201.586 56.22 200.457 55.6748 198.809 55.6748C197.406 55.6748 196.37 56.0819 195.701 56.8961C195.161 57.5577 194.895 58.3356 194.895 59.2225C194.895 60.1386 195.161 60.9092 195.701 61.5489C196.37 62.385 197.406 62.7994 198.809 62.7994C200.457 62.7994 201.586 62.2468 202.205 61.1418H208.364C208.112 62.2105 207.623 63.1483 206.896 63.9626C206.162 64.7622 205.141 65.3875 203.817 65.8527C202.493 66.318 200.824 66.5507 198.809 66.5507Z" fill="#FF914D"/>
<path d="M229.682 66.26H223.839V60.5894H216.501V66.26H210.658V52.1853H216.501V57.885H223.839V52.1853H229.682V66.26Z" fill="#FF914D"/>
<path d="M249.544 66.26H232.766V52.1853H248.767V55.6749H238.608V57.885H247.213V60.5894H238.608V62.7704H249.544V66.26Z" fill="#FF914D"/>
<path d="M259.504 66.5507C257.619 66.5507 256.108 66.3471 254.957 65.94C253.805 65.5329 252.92 64.9731 252.309 64.2534C251.712 63.5409 251.309 62.7121 251.1 61.7816H257.317C257.777 62.4649 258.504 62.7994 259.504 62.7994C260.497 62.7994 261.231 62.4649 261.691 61.7816C261.727 61.7234 261.749 61.6652 261.749 61.6071C261.749 61.4326 261.518 61.309 261.058 61.229C260.597 61.1345 259.907 61.0546 258.986 60.9964C257.835 60.9601 256.611 60.8437 255.331 60.6474C252.489 60.204 251.071 59.0481 251.071 57.1869C251.071 57.0125 251.078 56.838 251.1 56.6635C251.309 55.733 251.712 54.9114 252.309 54.1917C252.92 53.4793 253.805 52.9122 254.957 52.5051C256.108 52.098 257.619 51.8944 259.504 51.8944C261.382 51.8944 262.9 52.098 264.051 52.5051C265.202 52.9122 266.073 53.4793 266.67 54.1917C267.282 54.9114 267.692 55.733 267.908 56.6635H261.691C261.231 56.0092 260.497 55.6748 259.504 55.6748C258.504 55.6748 257.777 56.0092 257.317 56.6635C257.273 56.7217 257.259 56.7726 257.259 56.8089C257.259 56.9834 257.475 57.1142 257.921 57.1869C258.36 57.2451 259.015 57.3033 259.878 57.3614C260.741 57.4196 261.662 57.5068 262.641 57.6231C263.619 57.7395 264.526 57.943 265.375 58.2338C266.238 58.5246 266.908 58.9535 267.39 59.5133C267.749 59.9641 267.936 60.5239 267.936 61.2C267.936 61.3744 267.922 61.5707 267.908 61.7816C267.692 62.7121 267.282 63.5409 266.67 64.2534C266.073 64.9731 265.202 65.5329 264.051 65.94C262.9 66.3471 261.382 66.5507 259.504 66.5507Z" fill="#FF914D"/>
</g>
<defs>
<clipPath id="clip0_203415_1036">
<rect width="268" height="67" fill="white"/>
</clipPath>
</defs>
</svg>
